<svg xmlns="http://www.w3.org/2000/svg" xmlns:xlink="http://www.w3.org/1999/xlink" width="95" zoomAndPan="magnify" viewBox="0 0 71.25 96.75" height="129" preserveAspectRatio="xMidYMid meet" version="1.0"><defs><g/><clipPath id="1866b2a9ce"><path d="M 0 0.53125 L 70.507812 0.53125 L 70.507812 96 L 0 96 Z M 0 0.53125 " clip-rule="nonzero"/></clipPath></defs><g clip-path="url(#1866b2a9ce)"><path fill="#000000" d="M 53.414062 93.402344 C 59.621094 91.003906 64.71875 86.375 67.398438 80.699219 C 68.875 77.578125 69.773438 73.914062 70.230469 69.15625 C 70.4375 67.007812 70.492188 65.355469 70.398438 63.792969 C 69.992188 56.789062 65.960938 46.453125 59.914062 41.277344 C 59.824219 41.203125 59.726562 41.132812 59.636719 41.058594 C 60.128906 39.101562 60.261719 37.800781 60.445312 35.902344 L 60.488281 35.460938 C 60.695312 33.308594 60.75 31.652344 60.65625 30.09375 C 60.25 23.09375 56.21875 12.753906 50.171875 7.582031 C 45.152344 3.285156 38.167969 0.714844 31.011719 0.53125 C 30.996094 0.53125 30.984375 0.539062 30.96875 0.539062 C 30.90625 0.539062 30.847656 0.554688 30.789062 0.570312 C 30.738281 0.582031 30.683594 0.589844 30.640625 0.613281 C 30.589844 0.636719 30.546875 0.671875 30.5 0.703125 C 30.453125 0.734375 30.40625 0.765625 30.367188 0.804688 C 30.328125 0.84375 30.304688 0.890625 30.273438 0.9375 C 30.238281 0.984375 30.207031 1.03125 30.183594 1.089844 C 30.179688 1.105469 30.167969 1.113281 30.160156 1.128906 L 29.953125 1.738281 C 29.351562 3.492188 28.667969 5.484375 29 7.421875 L 29.050781 7.714844 C 29.152344 8.25 29.246094 8.761719 29.125 9.15625 C 29.070312 9.335938 28.980469 9.5 28.898438 9.667969 C 28.828125 9.796875 28.761719 9.933594 28.699219 10.070312 C 28.53125 10.460938 28.410156 10.886719 28.292969 11.3125 C 28.101562 12.003906 27.941406 12.601562 27.546875 12.855469 C 27.128906 13.125 26.421875 13.011719 25.734375 12.871094 L 21.953125 12.101562 C 21.714844 12.050781 21.210938 11.949219 20.730469 12.222656 C 20.257812 12.492188 20.003906 12.992188 19.972656 13.714844 C 19.957031 14.109375 19.960938 14.515625 19.960938 14.914062 C 19.964844 16.074219 19.976562 17.175781 19.515625 18.058594 C 18.679688 19.660156 16.53125 20.085938 15.648438 20.195312 C 13.546875 20.453125 11.640625 20.027344 10.28125 18.996094 L 9.558594 18.449219 L 9.035156 19.191406 C 7.023438 22.035156 4.398438 24.519531 1.445312 26.375 L 1.148438 26.5625 L 1.0625 26.910156 C 0.609375 28.742188 0.28125 30.617188 0.0742188 32.492188 L 0.0390625 32.496094 C 0.0429688 32.535156 0.0507812 32.578125 0.0546875 32.617188 C 0.0507812 32.648438 0.046875 32.675781 0.0429688 32.707031 C 0.0390625 32.738281 0.0390625 32.769531 0.0390625 32.800781 C 0.0390625 32.9375 0.078125 33.0625 0.136719 33.179688 C 0.554688 36.933594 1.644531 40.628906 3.347656 43.910156 C 5.277344 47.621094 7.953125 50.910156 11.289062 53.703125 C 10.21875 56.804688 9.667969 60.09375 9.667969 63.410156 C 9.667969 68.304688 10.824219 73.230469 13.09375 77.605469 C 17.320312 85.746094 25.332031 92 34.527344 94.328125 C 40.949219 95.957031 47.660156 95.632812 53.414062 93.402344 Z M 4.898438 43.097656 C 3.238281 39.902344 2.183594 36.289062 1.820312 32.617188 C 2.011719 30.957031 2.289062 29.296875 2.675781 27.667969 C 5.457031 25.867188 7.957031 23.539062 9.957031 20.894531 C 11.585938 21.839844 13.644531 22.210938 15.851562 21.941406 C 18.300781 21.640625 20.203125 20.527344 21.0625 18.875 C 21.730469 17.605469 21.722656 16.242188 21.714844 14.90625 C 21.714844 14.554688 21.710938 14.203125 21.722656 13.855469 L 25.375 14.605469 C 26.144531 14.761719 27.4375 15.023438 28.496094 14.34375 C 29.457031 13.71875 29.734375 12.695312 29.984375 11.78125 C 30.078125 11.445312 30.167969 11.097656 30.304688 10.785156 C 30.351562 10.679688 30.40625 10.578125 30.460938 10.472656 C 30.59375 10.207031 30.722656 9.945312 30.804688 9.664062 C 31.046875 8.863281 30.898438 8.082031 30.773438 7.402344 L 30.722656 7.128906 C 30.472656 5.640625 31.042969 3.960938 31.601562 2.339844 C 38.132812 2.644531 44.453125 5.011719 49.027344 8.921875 C 54.71875 13.792969 58.515625 23.566406 58.902344 30.203125 C 58.984375 31.667969 58.933594 33.242188 58.738281 35.300781 L 58.695312 35.742188 C 58.539062 37.363281 58.421875 38.476562 58.101562 39.921875 C 52.582031 36.058594 44.636719 33.832031 37.550781 34.25 C 30.773438 34.644531 24.328125 37.320312 19.371094 41.671875 C 18.867188 40.210938 17.453125 39.148438 15.894531 39.117188 C 15.171875 39.101562 14.503906 39.289062 13.917969 39.460938 C 13.222656 39.660156 12.179688 39.960938 11.578125 40.851562 C 11.296875 41.257812 11.171875 41.71875 11.082031 42.054688 C 10.902344 42.726562 10.722656 43.449219 10.722656 44.207031 C 10.722656 44.226562 10.722656 44.25 10.722656 44.269531 C 10.734375 45.242188 11.058594 46.113281 11.640625 46.710938 C 12.332031 47.425781 13.230469 47.675781 14.152344 47.746094 C 13.578125 48.648438 13.039062 49.574219 12.566406 50.539062 C 12.339844 51 12.15625 51.480469 11.960938 51.957031 C 9.019531 49.386719 6.628906 46.425781 4.898438 43.097656 Z M 15.363281 45.992188 C 14.429688 46.035156 13.421875 46.019531 12.910156 45.480469 C 12.644531 45.207031 12.488281 44.753906 12.480469 44.234375 C 12.503906 43.652344 12.617188 43.097656 12.78125 42.5 C 12.847656 42.261719 12.917969 41.996094 13.03125 41.828125 C 13.261719 41.492188 13.8125 41.308594 14.402344 41.140625 C 14.917969 40.992188 15.402344 40.851562 15.859375 40.863281 C 16.71875 40.882812 17.558594 41.546875 17.769531 42.378906 C 17.824219 42.585938 17.949219 42.746094 18.105469 42.863281 C 17.710938 43.253906 17.300781 43.636719 16.925781 44.054688 C 16.375 44.675781 15.863281 45.324219 15.363281 45.992188 Z M 34.945312 92.621094 C 26.230469 90.40625 18.640625 84.492188 14.644531 76.789062 C 10.960938 69.695312 10.390625 61.070312 13.113281 53.710938 L 12.289062 53.402344 L 13.113281 53.707031 C 13.414062 52.890625 13.765625 52.078125 14.144531 51.300781 C 15.226562 49.097656 16.605469 47.054688 18.238281 45.222656 C 23.085938 39.796875 30.164062 36.429688 37.652344 35.992188 C 44.644531 35.582031 52.53125 37.855469 57.746094 41.789062 L 57.960938 41.503906 L 57.746094 41.789062 C 58.097656 42.054688 58.4375 42.324219 58.769531 42.609375 C 64.460938 47.476562 68.257812 57.25 68.644531 63.886719 C 68.730469 65.359375 68.679688 66.925781 68.480469 68.984375 C 68.039062 73.535156 67.191406 77.015625 65.808594 79.945312 C 63.316406 85.21875 58.566406 89.523438 52.78125 91.761719 C 47.363281 93.859375 41.03125 94.167969 34.945312 92.621094 Z M 34.945312 92.621094 " fill-opacity="1" fill-rule="nonzero"/></g><path fill="#000000" d="M 36.699219 53.84375 C 37.234375 53.675781 37.617188 53.324219 37.925781 53.042969 C 38.050781 52.933594 38.171875 52.820312 38.304688 52.722656 C 38.664062 52.46875 39.160156 52.347656 39.683594 52.214844 C 40.5625 52 41.5625 51.757812 42.292969 50.824219 C 43.300781 49.53125 43.109375 47.929688 41.804688 46.734375 C 39.78125 44.886719 35 44.417969 32.882812 46.476562 C 32.144531 47.195312 31.730469 48.242188 31.730469 49.335938 C 31.730469 49.625 31.757812 49.914062 31.816406 50.199219 C 32.148438 51.863281 33.40625 53.261719 35.015625 53.777344 C 35.640625 53.980469 36.207031 53.996094 36.699219 53.84375 Z M 35.554688 52.101562 C 34.558594 51.789062 33.746094 50.886719 33.546875 49.859375 C 33.382812 49.0625 33.605469 48.226562 34.113281 47.738281 C 35.535156 46.355469 39.207031 46.734375 40.621094 48.03125 C 41.25 48.605469 41.347656 49.179688 40.910156 49.742188 C 40.570312 50.171875 40.066406 50.3125 39.269531 50.511719 C 38.636719 50.667969 37.925781 50.84375 37.296875 51.285156 C 37.101562 51.421875 36.921875 51.582031 36.742188 51.746094 C 36.535156 51.9375 36.339844 52.113281 36.171875 52.167969 C 36.074219 52.195312 35.886719 52.210938 35.554688 52.101562 Z M 35.554688 52.101562 " fill-opacity="1" fill-rule="nonzero"/><path fill="#000000" d="M 48.128906 67.367188 C 48.523438 68.847656 50.136719 69.53125 51.464844 69.339844 C 52.949219 69.121094 54.867188 67.804688 55.355469 66.1875 C 55.667969 65.171875 55.378906 64.199219 54.546875 63.453125 C 53.632812 62.625 52.417969 62.347656 51.214844 62.695312 C 49.78125 63.101562 48.589844 64.292969 48.183594 65.726562 C 48.089844 66.054688 48.042969 66.375 48.042969 66.683594 C 48.039062 66.917969 48.070312 67.148438 48.128906 67.367188 Z M 49.871094 66.203125 C 50.109375 65.371094 50.859375 64.625 51.695312 64.382812 C 52.132812 64.257812 52.773438 64.21875 53.363281 64.757812 C 53.773438 65.125 53.75 65.429688 53.671875 65.679688 C 53.402344 66.558594 52.09375 67.472656 51.210938 67.601562 C 50.664062 67.679688 49.957031 67.402344 49.824219 66.914062 C 49.773438 66.730469 49.792969 66.484375 49.871094 66.203125 Z M 49.871094 66.203125 " fill-opacity="1" fill-rule="nonzero"/><path fill="#000000" d="M 52.308594 80.066406 C 51.65625 78.496094 50.390625 77.5625 48.746094 77.449219 C 46.558594 77.292969 43.945312 78.683594 42.800781 80.617188 C 42.351562 81.382812 42.125 82.078125 42.125 82.726562 C 42.125 82.917969 42.144531 83.101562 42.179688 83.285156 C 42.394531 84.328125 43.207031 85.1875 44.523438 85.769531 C 46.710938 86.738281 49.839844 86.210938 51.5 84.589844 C 52.730469 83.390625 53.023438 81.785156 52.308594 80.066406 Z M 45.238281 84.164062 C 44.792969 83.964844 44.027344 83.542969 43.902344 82.929688 C 43.832031 82.566406 43.964844 82.109375 44.3125 81.515625 C 45.121094 80.15625 47.09375 79.097656 48.621094 79.207031 C 49.59375 79.277344 50.292969 79.792969 50.6875 80.746094 C 51.117188 81.78125 50.980469 82.652344 50.277344 83.339844 C 49.144531 84.433594 46.742188 84.828125 45.238281 84.164062 Z M 45.238281 84.164062 " fill-opacity="1" fill-rule="nonzero"/><path fill="#000000" d="M 36.125 69.835938 C 36.125 69.832031 36.125 69.832031 36.125 69.828125 C 36.125 69.242188 35.875 68.128906 34.238281 67.234375 C 33.296875 66.722656 32.269531 66.253906 31.117188 66.316406 C 29.960938 66.378906 28.792969 67.171875 28.792969 68.398438 C 28.792969 68.417969 28.792969 68.4375 28.792969 68.457031 C 28.816406 69.28125 29.367188 69.855469 29.84375 70.269531 C 30.324219 70.679688 30.832031 71.070312 31.367188 71.421875 C 32.558594 72.203125 33.878906 72.339844 34.90625 71.785156 C 35.664062 71.378906 36.121094 70.652344 36.125 69.835938 Z M 32.332031 69.949219 C 31.863281 69.644531 31.414062 69.304688 30.992188 68.9375 C 30.601562 68.597656 30.554688 68.453125 30.554688 68.40625 C 30.554688 68.320312 30.84375 68.09375 31.214844 68.074219 C 31.925781 68.035156 32.683594 68.390625 33.398438 68.777344 C 34.113281 69.171875 34.371094 69.582031 34.371094 69.832031 C 34.371094 70.058594 34.164062 70.191406 34.078125 70.238281 C 33.726562 70.425781 33.085938 70.449219 32.332031 69.949219 Z M 32.332031 69.949219 " fill-opacity="1" fill-rule="nonzero"/><path fill="#000000" d="M 40.023438 25.40625 C 40.023438 25.417969 40.023438 25.433594 40.023438 25.445312 C 40.042969 26.207031 40.535156 26.757812 40.835938 27.089844 L 42.816406 29.292969 C 43.214844 29.730469 43.660156 30.234375 44.242188 30.617188 C 45.546875 31.492188 47.351562 31.621094 48.945312 30.953125 C 49.242188 30.828125 49.617188 30.640625 49.898438 30.289062 C 50.207031 29.898438 50.296875 29.4375 50.339844 29.191406 L 50.382812 28.957031 C 50.695312 27.320312 51.167969 24.84375 49.835938 23.289062 C 48.503906 21.722656 46.007812 21.113281 44.351562 20.707031 C 44.003906 20.621094 43.625 20.546875 43.207031 20.605469 C 42.191406 20.757812 41.601562 21.613281 41.25 22.246094 C 40.835938 22.980469 40.484375 23.753906 40.207031 24.542969 C 40.113281 24.785156 40.023438 25.074219 40.023438 25.40625 Z M 43.460938 22.347656 C 43.574219 22.332031 43.789062 22.382812 43.929688 22.417969 C 45.367188 22.765625 47.53125 23.300781 48.496094 24.433594 C 49.28125 25.347656 48.902344 27.328125 48.65625 28.632812 L 48.613281 28.867188 C 48.578125 29.054688 48.546875 29.164062 48.519531 29.203125 C 48.507812 29.214844 48.460938 29.257812 48.269531 29.339844 C 47.230469 29.773438 46.03125 29.703125 45.222656 29.164062 C 44.828125 28.898438 44.472656 28.503906 44.132812 28.125 L 42.152344 25.921875 C 42.0625 25.824219 41.792969 25.523438 41.789062 25.414062 C 41.789062 25.417969 41.84375 25.195312 41.867188 25.136719 C 42.113281 24.445312 42.421875 23.761719 42.785156 23.113281 C 43.109375 22.515625 43.332031 22.367188 43.460938 22.347656 Z M 43.460938 22.347656 " fill-opacity="1" fill-rule="nonzero"/><path fill="#000000" d="M 44.914062 13.863281 C 45.40625 12.144531 43.882812 9.496094 42.046875 8.894531 C 41.523438 8.726562 39.75 8.363281 38.824219 10.882812 C 38.632812 11.40625 38.453125 12.015625 38.453125 12.640625 C 38.453125 13.074219 38.539062 13.519531 38.78125 13.9375 C 38.957031 14.246094 39.203125 14.511719 39.503906 14.726562 C 39.847656 14.976562 40.261719 15.160156 40.734375 15.28125 C 43.910156 16.074219 44.714844 14.558594 44.914062 13.863281 Z M 41.164062 13.578125 C 40.910156 13.515625 40.695312 13.421875 40.53125 13.304688 C 40.433594 13.230469 40.359375 13.152344 40.308594 13.0625 C 40.085938 12.671875 40.296875 11.976562 40.476562 11.492188 C 40.886719 10.367188 41.316406 10.507812 41.5 10.570312 C 42.34375 10.84375 43.261719 12.234375 43.261719 13.113281 C 43.261719 13.210938 43.25 13.300781 43.226562 13.382812 C 43.085938 13.867188 42.066406 13.800781 41.164062 13.578125 Z M 41.164062 13.578125 " fill-opacity="1" fill-rule="nonzero"/><path fill="#000000" d="M 27.347656 27.890625 C 28.859375 29.027344 30.679688 28.601562 31.703125 27.597656 C 32.785156 26.53125 32.890625 24.960938 31.96875 23.691406 C 31.316406 22.792969 30.378906 22.398438 29.398438 22.597656 C 27.988281 22.890625 26.867188 24.328125 26.597656 25.542969 C 26.546875 25.761719 26.523438 25.972656 26.523438 26.179688 C 26.519531 26.878906 26.804688 27.484375 27.347656 27.890625 Z M 28.402344 26.484375 C 28.277344 26.390625 28.246094 26.203125 28.308594 25.921875 C 28.46875 25.207031 29.15625 24.441406 29.746094 24.316406 C 29.949219 24.273438 30.222656 24.28125 30.542969 24.71875 C 30.757812 25.019531 30.839844 25.292969 30.839844 25.519531 C 30.839844 25.894531 30.636719 26.175781 30.46875 26.339844 C 29.984375 26.820312 29.117188 27.023438 28.402344 26.484375 Z M 28.402344 26.484375 " fill-opacity="1" fill-rule="nonzero"/><path fill="#000000" d="M 22.527344 55.070312 C 21.871094 54.171875 20.933594 53.777344 19.953125 53.980469 C 18.546875 54.269531 17.425781 55.707031 17.152344 56.925781 C 17.105469 57.140625 17.078125 57.351562 17.078125 57.558594 C 17.078125 58.261719 17.363281 58.871094 17.902344 59.273438 C 19.417969 60.410156 21.238281 59.984375 22.261719 58.980469 C 23.34375 57.910156 23.453125 56.34375 22.527344 55.070312 Z M 18.960938 57.871094 C 18.839844 57.777344 18.808594 57.589844 18.871094 57.308594 C 19.027344 56.59375 19.71875 55.828125 20.308594 55.703125 C 20.511719 55.660156 20.785156 55.667969 21.101562 56.105469 C 21.320312 56.40625 21.402344 56.679688 21.402344 56.910156 C 21.402344 57.28125 21.195312 57.5625 21.027344 57.730469 C 20.546875 58.203125 19.679688 58.40625 18.960938 57.871094 Z M 18.960938 57.871094 " fill-opacity="1" fill-rule="nonzero"/><path fill="#000000" d="M 20.597656 29.855469 C 20.761719 29.589844 20.804688 29.246094 20.703125 28.882812 C 20.355469 27.699219 19.324219 26.796875 18.132812 26.632812 C 16.878906 26.464844 15.589844 27.160156 15.078125 28.292969 C 14.921875 28.644531 14.847656 29.023438 14.847656 29.398438 C 14.847656 30.300781 15.28125 31.1875 16.042969 31.683594 C 16.742188 32.140625 17.566406 32.203125 18.207031 32.203125 C 18.480469 32.203125 18.800781 32.191406 19.128906 32.070312 C 20.234375 31.660156 20.492188 30.441406 20.597656 29.855469 Z M 17.003906 30.214844 C 16.648438 29.980469 16.5 29.421875 16.683594 29.015625 C 16.875 28.589844 17.40625 28.3125 17.894531 28.378906 C 18.339844 28.441406 18.765625 28.78125 18.953125 29.214844 C 18.945312 29.238281 18.941406 29.261719 18.9375 29.285156 C 18.910156 29.347656 18.890625 29.414062 18.878906 29.480469 C 18.738281 30.289062 18.566406 30.410156 18.515625 30.425781 C 18.453125 30.449219 18.28125 30.449219 18.207031 30.449219 C 17.789062 30.445312 17.3125 30.414062 17.003906 30.214844 Z M 17.003906 30.214844 " fill-opacity="1" fill-rule="nonzero"/><path fill="#000000" d="M 26.125 75.851562 C 25.605469 74.296875 23.367188 73.328125 21.789062 73.53125 C 21.054688 73.621094 20.476562 73.878906 20.054688 74.289062 C 19.515625 74.820312 19.238281 75.441406 19.238281 76.0625 C 19.238281 76.542969 19.40625 77.023438 19.738281 77.46875 C 20.703125 78.742188 23.140625 79.5625 24.722656 78.660156 C 26.5 77.644531 26.296875 76.359375 26.125 75.851562 Z M 21.144531 76.402344 C 20.980469 76.183594 20.867188 75.953125 21.292969 75.539062 C 21.429688 75.40625 21.679688 75.3125 22.015625 75.269531 C 22.972656 75.144531 24.269531 75.828125 24.460938 76.40625 C 24.46875 76.433594 24.472656 76.457031 24.472656 76.484375 C 24.472656 76.734375 24.09375 76.988281 23.851562 77.125 C 23.175781 77.519531 21.683594 77.117188 21.144531 76.402344 Z M 21.144531 76.402344 " fill-opacity="1" fill-rule="nonzero"/><path fill="#000000" d="M 55.996094 52.945312 C 55.453125 53.476562 55.179688 54.09375 55.179688 54.71875 C 55.179688 55.195312 55.34375 55.679688 55.675781 56.121094 C 56.640625 57.398438 59.082031 58.21875 60.660156 57.316406 C 62.433594 56.304688 62.230469 55.015625 62.066406 54.507812 C 61.542969 52.953125 59.304688 51.984375 57.726562 52.183594 C 56.996094 52.28125 56.410156 52.535156 55.996094 52.945312 Z M 60.394531 55.066406 C 60.402344 55.09375 60.40625 55.117188 60.40625 55.144531 C 60.40625 55.398438 60.03125 55.652344 59.789062 55.789062 C 59.113281 56.171875 57.617188 55.773438 57.082031 55.058594 C 56.917969 54.84375 56.804688 54.613281 57.226562 54.195312 C 57.363281 54.0625 57.613281 53.972656 57.953125 53.929688 C 58.90625 53.808594 60.199219 54.492188 60.394531 55.066406 Z M 60.394531 55.066406 " fill-opacity="1" fill-rule="nonzero"/><g fill="#000000" fill-opacity="1"><g transform="translate(32.354155, 49.364584)"><g><path d="M 0.515625 0.046875 C 0.398438 0.046875 0.3125 0.015625 0.25 -0.046875 C 0.195312 -0.117188 0.171875 -0.203125 0.171875 -0.296875 C 0.171875 -0.398438 0.203125 -0.484375 0.265625 -0.546875 C 0.328125 -0.609375 0.410156 -0.640625 0.515625 -0.640625 C 0.628906 -0.640625 0.71875 -0.613281 0.78125 -0.5625 C 0.84375 -0.507812 0.875 -0.425781 0.875 -0.3125 C 0.875 -0.207031 0.84375 -0.117188 0.78125 -0.046875 C 0.71875 0.015625 0.628906 0.046875 0.515625 0.046875 Z M 0.515625 0.046875 "/></g></g></g></svg>